<svg width="254" height="52" viewBox="0 0 254 52" fill="none" xmlns="http://www.w3.org/2000/svg">
<rect width="254" height="52" fill="white"/>
<path d="M94.1787 32.1367C92.7484 32.6107 91.318 32.9492 89.8877 33.1523C88.4658 33.3639 87.0101 33.4697 85.5205 33.4697C83.6162 33.4697 81.9193 33.2666 80.4297 32.8604C78.9486 32.4456 77.7002 31.849 76.6846 31.0703C75.6689 30.2917 74.8945 29.3395 74.3613 28.2139C73.8281 27.0882 73.5615 25.8145 73.5615 24.3926C73.5615 23.0723 73.8281 21.8493 74.3613 20.7236C74.903 19.5895 75.6647 18.6077 76.6465 17.7783C77.6367 16.9404 78.8301 16.2887 80.2266 15.8232C81.623 15.3493 83.1803 15.1123 84.8984 15.1123C86.4811 15.1123 87.9284 15.3281 89.2402 15.7598C90.5605 16.1829 91.6904 16.8135 92.6299 17.6514C93.5778 18.4893 94.3099 19.5218 94.8262 20.749C95.3509 21.9762 95.6133 23.3896 95.6133 24.9893V26.1572H78.4238C78.5762 26.7074 78.8258 27.2109 79.1729 27.668C79.5283 28.125 80.0065 28.5143 80.6074 28.8359C81.2083 29.1576 81.9447 29.4072 82.8164 29.585C83.6966 29.7627 84.7461 29.8516 85.9648 29.8516C86.8281 29.8516 87.6745 29.8008 88.5039 29.6992C89.3333 29.5892 90.1077 29.4495 90.8271 29.2803C91.5465 29.1025 92.194 28.9079 92.7695 28.6963C93.3535 28.4847 93.8232 28.2731 94.1787 28.0615V32.1367ZM90.9287 22.7041C90.8864 22.2725 90.7552 21.8281 90.5352 21.3711C90.3236 20.9056 89.985 20.4867 89.5195 20.1143C89.054 19.7419 88.4447 19.4372 87.6914 19.2002C86.9382 18.9548 85.9987 18.832 84.873 18.832C83.8151 18.832 82.901 18.9632 82.1309 19.2256C81.3607 19.488 80.7132 19.8138 80.1885 20.2031C79.6722 20.5924 79.2702 21.0114 78.9824 21.46C78.6947 21.9085 78.5085 22.3232 78.4238 22.7041H90.9287ZM101.742 15.5566V17.4736C102.156 17.2113 102.605 16.9404 103.087 16.6611C103.578 16.3818 104.107 16.1279 104.674 15.8994C105.25 15.6709 105.863 15.4847 106.515 15.3408C107.175 15.1885 107.886 15.1123 108.648 15.1123C109.393 15.1123 110.044 15.1927 110.603 15.3535C111.161 15.5059 111.644 15.709 112.05 15.9629C112.465 16.2083 112.816 16.4876 113.104 16.8008C113.392 17.1055 113.641 17.4102 113.853 17.7148C114.454 17.3255 115.046 16.9701 115.63 16.6484C116.214 16.3268 116.802 16.0518 117.395 15.8232C117.987 15.5947 118.592 15.4212 119.21 15.3027C119.828 15.1758 120.471 15.1123 121.14 15.1123C122.206 15.1123 123.159 15.2604 123.996 15.5566C124.843 15.8529 125.558 16.2591 126.142 16.7754C126.726 17.2917 127.17 17.901 127.475 18.6035C127.788 19.2975 127.945 20.0423 127.945 20.8379V33H123.235V21.5107C123.235 21.0452 123.163 20.6432 123.019 20.3047C122.875 19.9661 122.68 19.6911 122.435 19.4795C122.198 19.2679 121.914 19.1113 121.584 19.0098C121.263 18.9082 120.92 18.8574 120.556 18.8574C118.863 18.8574 116.934 19.6191 114.767 21.1426C114.792 21.2865 114.809 21.4557 114.818 21.6504C114.835 21.8451 114.843 22.0397 114.843 22.2344V33H110.133V21.4092C110.133 20.9437 110.061 20.5501 109.917 20.2285C109.773 19.8984 109.575 19.6318 109.321 19.4287C109.075 19.2256 108.787 19.0817 108.457 18.9971C108.136 18.904 107.793 18.8574 107.429 18.8574C106.989 18.8574 106.523 18.9209 106.033 19.0479C105.55 19.1748 105.059 19.3525 104.56 19.5811C104.069 19.8096 103.582 20.0804 103.1 20.3936C102.626 20.7067 102.173 21.0452 101.742 21.4092V33H97.0316V15.5566H101.742ZM167.115 26.5508C167.115 27.7103 166.925 28.709 166.544 29.5469C166.172 30.3848 165.621 31.0745 164.894 31.6162C164.174 32.1579 163.29 32.5599 162.24 32.8223C161.191 33.0762 159.993 33.2031 158.648 33.2031C158.013 33.2031 157.361 33.1693 156.692 33.1016C156.024 33.0423 155.381 32.9661 154.763 32.873C154.145 32.7799 153.574 32.6826 153.049 32.5811C152.533 32.471 152.101 32.3695 151.754 32.2764V28.1885C152.109 28.3324 152.499 28.4805 152.922 28.6328C153.345 28.7767 153.815 28.9079 154.331 29.0264C154.856 29.1449 155.431 29.2422 156.058 29.3184C156.692 29.3945 157.391 29.4326 158.152 29.4326C158.973 29.4326 159.655 29.3438 160.196 29.166C160.746 28.9798 161.187 28.7259 161.517 28.4043C161.847 28.0742 162.08 27.6891 162.215 27.249C162.35 26.8089 162.418 26.3265 162.418 25.8018V15.5566H167.115V26.5508ZM169.6 33V15.5566H174.31V33H169.6ZM204.975 24.291C204.975 25.7975 204.712 27.1051 204.188 28.2139C203.663 29.3141 202.948 30.2324 202.042 30.9688C202.618 31.0957 203.168 31.21 203.693 31.3115C204.217 31.4046 204.683 31.485 205.089 31.5527C205.563 31.6374 206.012 31.7051 206.435 31.7559L205.838 33.4189L200.138 32.1367C199.249 32.543 198.28 32.8434 197.231 33.0381C196.19 33.2412 195.089 33.3428 193.93 33.3428C192.364 33.3428 190.904 33.165 189.55 32.8096C188.196 32.4541 187.019 31.9082 186.021 31.1719C185.022 30.4271 184.239 29.4876 183.672 28.3535C183.105 27.2109 182.821 25.8568 182.821 24.291C182.821 23.25 182.953 22.3063 183.215 21.46C183.477 20.6051 183.846 19.8434 184.319 19.1748C184.793 18.4977 185.365 17.9137 186.033 17.4229C186.71 16.932 187.459 16.5257 188.28 16.2041C189.11 15.874 189.999 15.6328 190.946 15.4805C191.894 15.3197 192.889 15.2393 193.93 15.2393C195.487 15.2393 196.939 15.417 198.284 15.7725C199.63 16.1279 200.798 16.6781 201.788 17.4229C202.778 18.1592 203.557 19.0986 204.124 20.2412C204.691 21.3753 204.975 22.7253 204.975 24.291ZM203.337 24.291C203.337 23.0553 203.134 21.9635 202.728 21.0156C202.33 20.0677 201.737 19.2721 200.95 18.6289C200.163 17.9772 199.181 17.4863 198.005 17.1562C196.837 16.8177 195.479 16.6484 193.93 16.6484C192.381 16.6484 191.014 16.8177 189.829 17.1562C188.653 17.4948 187.667 17.9899 186.871 18.6416C186.076 19.2848 185.475 20.0846 185.069 21.041C184.662 21.9889 184.459 23.0723 184.459 24.291C184.459 25.5267 184.662 26.6185 185.069 27.5664C185.475 28.5143 186.076 29.3141 186.871 29.9658C187.667 30.609 188.653 31.0999 189.829 31.4385C191.014 31.7686 192.381 31.9336 193.93 31.9336C195.479 31.9336 196.837 31.7686 198.005 31.4385C199.181 31.0999 200.163 30.609 200.95 29.9658C201.737 29.3141 202.33 28.5143 202.728 27.5664C203.134 26.6185 203.337 25.5267 203.337 24.291ZM208.31 15.5566V27.0713C208.302 28.0446 208.424 28.8444 208.678 29.4707C208.932 30.097 209.296 30.5921 209.77 30.9561C210.252 31.3115 210.832 31.5612 211.509 31.7051C212.195 31.8405 212.965 31.9082 213.82 31.9082C214.81 31.9082 215.779 31.7897 216.727 31.5527C217.675 31.3073 218.568 31.0026 219.406 30.6387C220.244 30.2663 221.01 29.8558 221.704 29.4072C222.406 28.9587 223.003 28.527 223.494 28.1123V15.5566H225.106V33H223.494V29.9277C222.901 30.3086 222.254 30.7064 221.551 31.1211C220.849 31.5273 220.087 31.904 219.266 32.251C218.454 32.5895 217.582 32.8688 216.651 33.0889C215.72 33.3089 214.734 33.4189 213.693 33.4189C212.516 33.4189 211.488 33.2708 210.608 32.9746C209.736 32.6784 209.008 32.2637 208.424 31.7305C207.849 31.1973 207.417 30.5667 207.129 29.8389C206.842 29.1025 206.698 28.2943 206.698 27.4141V15.5566H208.31ZM228.137 33V15.5566H229.724V33H228.137ZM231.675 33V31.7051L244.32 17.042H232.018V15.5566H246.782V16.4072L233.757 31.5146H247.049V33H231.675Z" fill="#0F172A" fill-opacity="0.94"/>
<path d="M153.052 24.291C153.052 25.7891 152.777 27.1136 152.227 28.2646C151.677 29.4072 150.89 30.3636 149.866 31.1338C148.842 31.904 147.598 32.488 146.134 32.8857C144.678 33.2751 143.04 33.4697 141.22 33.4697C139.401 33.4697 137.755 33.2751 136.282 32.8857C134.818 32.488 133.569 31.904 132.537 31.1338C131.504 30.3636 130.709 29.4072 130.15 28.2646C129.592 27.1136 129.312 25.7891 129.312 24.291C129.312 22.793 129.592 21.4727 130.15 20.3301C130.709 19.179 131.504 18.2184 132.537 17.4482C133.569 16.6781 134.818 16.0983 136.282 15.709C137.755 15.3112 139.401 15.1123 141.22 15.1123C143.04 15.1123 144.678 15.3112 146.134 15.709C147.598 16.0983 148.842 16.6781 149.866 17.4482C150.89 18.2184 151.677 19.179 152.227 20.3301C152.777 21.4727 153.052 22.793 153.052 24.291ZM148.292 24.291C148.292 23.6393 148.186 22.9919 147.974 22.3486C147.771 21.6969 147.403 21.113 146.87 20.5967C146.345 20.0804 145.626 19.6615 144.712 19.3398C143.798 19.0182 142.634 18.8574 141.22 18.8574C140.273 18.8574 139.439 18.9336 138.719 19.0859C138 19.2298 137.378 19.4329 136.853 19.6953C136.329 19.9577 135.888 20.2666 135.533 20.6221C135.177 20.9691 134.894 21.3457 134.682 21.752C134.471 22.1497 134.318 22.5687 134.225 23.0088C134.141 23.4404 134.098 23.8678 134.098 24.291C134.098 24.7227 134.141 25.1585 134.225 25.5986C134.318 26.0387 134.471 26.4619 134.682 26.8682C134.894 27.266 135.177 27.6383 135.533 27.9854C135.888 28.3324 136.329 28.637 136.853 28.8994C137.378 29.1533 138 29.3564 138.719 29.5088C139.439 29.6527 140.273 29.7246 141.22 29.7246C142.634 29.7246 143.798 29.5638 144.712 29.2422C145.626 28.9206 146.345 28.5016 146.87 27.9854C147.403 27.4691 147.771 26.8893 147.974 26.2461C148.186 25.5944 148.292 24.9427 148.292 24.291Z" fill="#FF8E08"/>
<line x1="50.3453" y1="37.6244" x2="64.9227" y2="12.3756" stroke="#E2E2E2" stroke-width="2"/>
<g clip-path="url(#clip0_4_300)">
<path fill-rule="evenodd" clip-rule="evenodd" d="M33.7467 7.36801C33.4623 7.42083 33.232 7.57989 33.0559 7.84517C32.4549 7.09288 31.8023 6.37715 31.0987 5.69796C30.681 6.02038 30.7576 6.25895 31.3289 6.4137C31.5097 6.8398 31.7782 7.19767 32.1348 7.4873C32.0582 7.56682 31.9813 7.64636 31.9046 7.72588C36.5518 12.304 37.8951 17.7516 35.9342 24.0685C35.7822 24.5036 35.5135 24.8217 35.1283 25.0228C35.899 22.4575 36.1674 19.8332 35.9342 17.1497C35.8444 16.5284 35.6523 15.9718 35.3585 15.4797C34.4552 12.1144 32.5364 9.52977 29.602 7.72588C26.681 5.99917 23.5341 5.32318 20.1612 5.69796C19.1786 5.87823 18.2576 6.19635 17.398 6.65227C15.1421 7.50381 13.3 8.93528 11.8717 10.9467C11.5647 11.1058 11.3344 11.3443 11.1809 11.6624C10.9506 11.6624 10.7204 11.6624 10.4901 11.6624C10.2168 12.2363 9.87137 12.793 9.45392 13.3325C9.21056 12.9223 9.01866 12.4849 8.87827 12.0203C8.91472 11.5487 8.95308 11.0318 8.9934 10.4695C8.81108 11.0914 8.46568 11.5685 7.95721 11.901C10.3357 7.09551 14.0967 4.11328 19.2401 2.95431C24.8247 2.00895 29.6602 3.48018 33.7467 7.36801Z" fill="#0B1A28"/>
<path fill-rule="evenodd" clip-rule="evenodd" d="M20.1612 5.69797C20.0077 5.85703 19.8542 6.01606 19.7007 6.17512C18.9433 6.38362 18.1757 6.54266 17.398 6.65228C18.2576 6.19636 19.1787 5.87824 20.1612 5.69797Z" fill="#868A69"/>
<path fill-rule="evenodd" clip-rule="evenodd" d="M19.7007 6.17513C21.2565 6.08509 22.7916 6.20438 24.3059 6.533C25.7324 7.24411 25.9627 8.19843 24.9967 9.39595C20.5484 9.27463 16.8642 10.9447 13.9441 14.4061C13.1934 14.593 12.4642 14.5533 11.7566 14.2868C11.5551 13.9592 11.44 13.6013 11.4112 13.2132C11.6376 12.4708 11.7911 11.7153 11.8717 10.9467C13.3 8.9353 15.1421 7.50383 17.398 6.65229C18.1757 6.54266 18.9433 6.38363 19.7007 6.17513Z" fill="#FBFCF7"/>
<path fill-rule="evenodd" clip-rule="evenodd" d="M20.1612 5.69797C23.5341 5.32319 26.681 5.99918 29.602 7.72589C32.5365 9.52979 34.4552 12.1144 35.3586 15.4797C35.5729 18.0358 35.2275 20.5011 34.3224 22.8756C34.029 23.5654 33.6836 24.2016 33.2862 24.7843C33.2035 24.2437 33.3571 23.8063 33.7467 23.4721C33.6109 23.112 33.4575 22.7541 33.2862 22.3985C33.0552 22.8857 32.7481 22.9652 32.3651 22.6371C32.1975 23.041 31.9672 23.3989 31.6744 23.7107C31.3879 23.8195 31.1961 23.7002 31.0987 23.3528C30.9405 24.3261 30.7102 25.2804 30.4079 26.2157C30.3119 26.5154 30.1201 26.6745 29.8322 26.6929C30.6918 24.8021 30.73 22.8935 29.9474 20.967C29.7595 20.6514 29.4908 20.4924 29.1415 20.4899C29.2377 20.3177 29.3911 20.1984 29.602 20.132C29.1435 20.0429 28.7597 19.844 28.4507 19.5355C30.7927 19.6797 31.8289 18.5664 31.5592 16.1954C30.9117 15.0452 29.9522 14.4885 28.6809 14.5254C28.6747 14.12 28.5212 13.8019 28.2204 13.5711C29.1385 13.5349 29.4839 13.0577 29.2566 12.1396C27.879 10.5666 26.3439 10.328 24.6513 11.4239C24.4978 11.8215 24.4978 12.2191 24.6513 12.6168C24.8182 12.75 25.0101 12.8295 25.227 12.8553C25.7305 12.5552 26.2678 12.3166 26.8388 12.1396C27.4562 12.3021 27.84 12.6997 27.9901 13.3325C27.6831 13.3325 27.3761 13.3325 27.0691 13.3325C26.8573 13.9005 26.8573 14.4572 27.0691 15.0025C26.722 15.2981 26.4534 15.2186 26.2632 14.764C26.0713 15.0025 25.8794 15.2411 25.6875 15.4797C25.5281 15.3544 25.4129 15.1953 25.3421 15.0025C25.0725 15.5613 24.8038 16.118 24.5362 16.6726C24.2125 16.3939 23.9439 16.4734 23.7303 16.9112C23.6799 16.5681 23.5647 16.25 23.3849 15.9569C23.1657 16.2033 23.1657 16.4816 23.3849 16.7919C23.1546 17.1498 22.9244 17.5076 22.6941 17.8655C22.4222 17.4753 22.4222 17.0777 22.6941 16.6726C22.579 16.5931 22.4638 16.5135 22.3487 16.434C22.079 16.6343 21.8104 16.8331 21.5428 17.0305C21.6963 17.11 21.8498 17.1895 22.0033 17.269C21.6738 17.38 21.4052 17.5789 21.1974 17.8655C21.3017 17.3993 21.3401 16.9619 21.3125 16.5533C21.0942 16.4381 20.864 16.3983 20.6217 16.434C20.6596 17.1541 20.6213 17.8699 20.5066 18.5812C20.4298 18.1836 20.3531 17.786 20.2763 17.3883C19.9992 17.6199 19.8841 17.8585 19.9309 18.1041C19.7774 17.8655 19.6239 17.6269 19.4704 17.3883C18.8919 18.2472 18.2779 19.0822 17.6283 19.8934C16.6638 20.0871 15.7427 20.0474 14.8651 19.7741C17.3849 19.625 18.306 18.2731 17.6283 15.7183C16.1089 14.052 14.6889 14.1316 13.3684 15.9569C13.0727 17.49 13.4948 18.7624 14.6349 19.7741C14.671 20.1018 14.6326 20.4199 14.5197 20.7284C13.7906 20.291 13.0614 19.8536 12.3322 19.4162C12.3597 19.1106 12.2446 18.8322 11.9869 18.5812C11.8717 18.7005 11.7566 18.8198 11.6415 18.9391C11.7683 19.2727 11.8451 19.5908 11.8717 19.8934C11.3739 20.4951 11.2971 21.1711 11.6415 21.9213C11.8213 21.6282 11.9365 21.3101 11.9869 20.967C12.0529 21.5374 12.168 22.0941 12.3322 22.6371C11.9118 22.7373 11.4513 22.7373 10.9507 22.6371C10.8691 22.1501 10.8691 21.7127 10.9507 21.3249C10.4872 20.8975 10.4872 20.5794 10.9507 20.3706C10.8781 19.991 10.7246 19.5536 10.4901 19.0584C10.8404 18.425 10.7636 17.8684 10.2599 17.3883C10.872 16.6676 11.2557 15.9121 11.4112 15.1218C11.0626 14.7785 10.9858 14.4206 11.1809 14.0482C11.0101 13.8605 10.8182 13.7015 10.6053 13.5711C10.3111 14.1072 9.96572 14.5844 9.56909 15.0025C9.86413 13.7549 10.4014 12.6416 11.1809 11.6624C11.3345 11.3443 11.5647 11.1058 11.8717 10.9467C11.7911 11.7153 11.6376 12.4708 11.4112 13.2132C11.44 13.6013 11.5551 13.9592 11.7566 14.2868C12.4642 14.5533 13.1934 14.593 13.9441 14.4061C16.8642 10.9447 20.5484 9.27463 24.9967 9.39594C25.9627 8.19842 25.7324 7.24411 24.3059 6.533C22.7916 6.20438 21.2565 6.08509 19.7007 6.17513L20.1612 5.69797Z" fill="#EEBE42"/>
<path fill-rule="evenodd" clip-rule="evenodd" d="M11.1809 11.6624C10.4014 12.6416 9.86413 13.7549 9.5691 15.0025V15.2411C9.31569 15.6652 9.12382 16.1423 8.99344 16.6726C8.80389 18.703 8.84225 20.6911 9.10857 22.6371C9.81886 25.8607 11.3539 28.5645 13.7138 30.7487C14.4358 31.5601 15.2801 32.1962 16.2467 32.6574C15.7862 32.5779 15.3257 32.4982 14.8652 32.4188C14.8697 32.8108 14.7162 33.1288 14.4046 33.3731C13.793 33.6389 13.179 33.6389 12.5625 33.3731C10.0165 31.2855 8.13596 28.6612 6.92107 25.5C6.45877 23.9834 6.11338 22.4724 5.88489 20.967C5.88489 20.3308 5.88489 19.6946 5.88489 19.0584C6.0919 17.3917 6.4373 15.7217 6.92107 14.0482C7.1521 13.2513 7.4975 12.5356 7.95726 11.901C8.46572 11.5685 8.81112 11.0914 8.99344 10.4695C8.95312 11.0318 8.91476 11.5487 8.87831 12.0203C9.0187 12.4849 9.2106 12.9223 9.45397 13.3325C9.87141 12.793 10.2168 12.2363 10.4902 11.6624H11.1809Z" fill="#0B1825"/>
<path fill-rule="evenodd" clip-rule="evenodd" d="M28.2204 13.5711C28.2204 13.412 28.1437 13.3325 27.9901 13.3325C27.84 12.6997 27.4562 12.3021 26.8388 12.1396C26.2678 12.3166 25.7306 12.5552 25.227 12.8553C25.0101 12.8295 24.8182 12.75 24.6513 12.6167C24.4978 12.2191 24.4978 11.8215 24.6513 11.4239C26.3439 10.328 27.879 10.5666 29.2566 12.1396C29.4839 13.0577 29.1385 13.5348 28.2204 13.5711Z" fill="#0E141D"/>
<path fill-rule="evenodd" clip-rule="evenodd" d="M27.9901 13.3325C28.1437 13.3325 28.2204 13.412 28.2204 13.5711C28.5212 13.8019 28.6747 14.12 28.6809 14.5254C26.9344 15.5334 26.589 16.9649 27.6447 18.8198C27.884 19.1085 28.1527 19.3471 28.4507 19.5355C28.7597 19.844 29.1435 20.0428 29.602 20.132C29.3911 20.1984 29.2377 20.3177 29.1415 20.4898C27.234 21.9155 25.1617 23.0289 22.9244 23.83C21.7504 24.0443 20.5607 24.2033 19.3553 24.3071C18.2296 24.3223 17.1934 24.1632 16.2467 23.83C15.4032 24.0002 14.7508 24.3182 14.2895 24.7843C13.9072 24.1077 13.3316 23.7499 12.5625 23.7107C13.4496 23.5526 13.4496 23.3538 12.5625 23.1142C12.409 23.154 12.2555 23.1937 12.102 23.2335C12.3209 23.4047 12.3592 23.6035 12.2171 23.83C11.9562 23.4217 11.6108 23.3024 11.1809 23.4721C11.3662 23.9846 11.3662 24.422 11.1809 24.7843C10.9972 24.4079 10.8821 24.0102 10.8355 23.5914C10.7588 23.7504 10.682 23.9095 10.6053 24.0685C9.77218 23.2307 9.38843 22.1969 9.45396 20.967C9.36586 21.0997 9.25073 21.1792 9.10856 21.2056C9.01609 19.1892 9.16958 17.201 9.56909 15.2411C9.56909 15.1616 9.56909 15.0821 9.56909 15.0025C9.96572 14.5844 10.3111 14.1072 10.6053 13.5711C10.8182 13.7015 11.0101 13.8605 11.1809 14.0482C10.9858 14.4206 11.0626 14.7785 11.4112 15.1218C11.2557 15.9121 10.872 16.6676 10.2599 17.3883C10.7636 17.8684 10.8404 18.425 10.4901 19.0584C10.7246 19.5536 10.8781 19.991 10.9507 20.3706C10.4872 20.5794 10.4872 20.8975 10.9507 21.3249C10.8691 21.7127 10.8691 22.1501 10.9507 22.6371C11.4513 22.7373 11.9118 22.7373 12.3322 22.6371C12.168 22.0941 12.0529 21.5374 11.9869 20.967C11.9364 21.3101 11.8213 21.6282 11.6415 21.9213C11.2971 21.1711 11.3739 20.4951 11.8717 19.8934C11.8451 19.5908 11.7683 19.2727 11.6415 18.9391L11.9869 18.5812C12.2446 18.8322 12.3597 19.1106 12.3322 19.4162C13.0614 19.8536 13.7906 20.291 14.5197 20.7284C14.6326 20.4199 14.671 20.1018 14.6349 19.7741H14.8651C15.7427 20.0474 16.6638 20.0871 17.6283 19.8934C18.2779 19.0822 18.8919 18.2472 19.4704 17.3883C19.6239 17.6269 19.7774 17.8655 19.9309 18.1041C19.8841 17.8585 19.9992 17.6199 20.2763 17.3883C20.3531 17.786 20.4298 18.1836 20.5066 18.5812C20.6213 17.8699 20.6596 17.1541 20.6217 16.434C20.864 16.3983 21.0942 16.4381 21.3125 16.5533C21.3401 16.9619 21.3017 17.3993 21.1974 17.8655C21.4052 17.5789 21.6738 17.38 22.0033 17.269C21.8498 17.1895 21.6963 17.11 21.5428 17.0305C21.8104 16.8331 22.079 16.6343 22.3487 16.434C22.4638 16.5135 22.579 16.5931 22.6941 16.6726C22.4222 17.0777 22.4222 17.4753 22.6941 17.8655L23.3849 16.7919C23.1657 16.4816 23.1657 16.2033 23.3849 15.9569C23.5647 16.25 23.6799 16.5681 23.7303 16.9112C23.9439 16.4734 24.2125 16.3939 24.5362 16.6726C24.8038 16.118 25.0725 15.5613 25.3421 15.0025C25.4129 15.1953 25.5281 15.3544 25.6875 15.4797C25.8794 15.2411 26.0713 15.0025 26.2632 14.764C26.4534 15.2185 26.722 15.2981 27.0691 15.0025C26.8573 14.4572 26.8573 13.9005 27.0691 13.3325H27.9901Z" fill="#F2C142"/>
<path fill-rule="evenodd" clip-rule="evenodd" d="M14.8651 19.7741C14.7884 19.7741 14.7116 19.7741 14.6349 19.7741C13.4948 18.7624 13.0727 17.49 13.3684 15.9569C14.6889 14.1316 16.1089 14.052 17.6283 15.7183C18.306 18.273 17.3849 19.625 14.8651 19.7741Z" fill="#0A1725"/>
<path fill-rule="evenodd" clip-rule="evenodd" d="M28.6809 14.5254C29.9522 14.4885 30.9117 15.0452 31.5592 16.1954C31.8288 18.5664 30.7927 19.6797 28.4507 19.5355C28.1527 19.3471 27.884 19.1085 27.6447 18.8198C26.589 16.9649 26.9344 15.5334 28.6809 14.5254Z" fill="#091725"/>
<path fill-rule="evenodd" clip-rule="evenodd" d="M9.56907 15.2411C9.16957 17.201 9.01607 19.1892 9.10855 21.2056V22.6371C8.84222 20.6911 8.80386 18.703 8.99342 16.6726C9.12379 16.1423 9.31567 15.6652 9.56907 15.2411Z" fill="#A68934"/>
<path fill-rule="evenodd" clip-rule="evenodd" d="M29.1414 20.4899C29.4907 20.4924 29.7595 20.6514 29.9474 20.967C30.73 22.8935 30.6918 24.8021 29.8322 26.6929C27.2762 29.7212 24.1293 30.5562 20.3914 29.198C19.4704 28.6414 18.5493 28.0845 17.6283 27.5279C16.9686 26.6471 16.2778 25.8121 15.5559 25.0228C16.9375 24.8638 18.3191 24.7048 19.7006 24.5457C20.8625 24.6017 21.9371 24.3632 22.9243 23.83C25.1617 23.0289 27.234 21.9155 29.1414 20.4899Z" fill="#0A1829"/>
<path fill-rule="evenodd" clip-rule="evenodd" d="M22.9243 23.83C21.9371 24.3632 20.8625 24.6017 19.7007 24.5457C18.2343 24.467 16.776 24.5466 15.3257 24.7843C15.3541 24.929 15.4309 25.0085 15.5559 25.0228C16.2778 25.8121 16.9686 26.6471 17.6283 27.5279C18.5493 28.0845 19.4704 28.6414 20.3914 29.198C24.1293 30.5562 27.2762 29.7212 29.8322 26.6929C30.1201 26.6745 30.3119 26.5154 30.4079 26.2157C30.7102 25.2804 30.9405 24.3261 31.0987 23.3528C31.1961 23.7002 31.3879 23.8195 31.6743 23.7107C31.9672 23.3989 32.1975 23.041 32.3651 22.6371C32.7481 22.9652 33.0552 22.8857 33.2862 22.3985C33.4575 22.7541 33.6109 23.112 33.7467 23.4721C33.3571 23.8063 33.2035 24.2437 33.2862 24.7843C31.0448 28.931 27.6676 31.5155 23.1546 32.5381C21.6195 32.6972 20.0844 32.6972 18.5493 32.5381C16.9054 32.0103 15.2935 31.4139 13.7138 30.7487C11.3539 28.5645 9.81884 25.8607 9.10855 22.6371C9.10855 22.1599 9.10855 21.6827 9.10855 21.2056C9.25072 21.1792 9.36585 21.0997 9.45395 20.967C9.38841 22.1969 9.77217 23.2307 10.6053 24.0685C10.682 23.9095 10.7588 23.7504 10.8355 23.5914C10.8821 24.0102 10.9972 24.4079 11.1809 24.7843C11.3662 24.422 11.3662 23.9846 11.1809 23.4721C11.6108 23.3024 11.9562 23.4217 12.2171 23.83C12.3592 23.6035 12.3209 23.4047 12.102 23.2335C12.2555 23.1937 12.409 23.154 12.5625 23.1142C13.4496 23.3538 13.4496 23.5526 12.5625 23.7107C13.3316 23.7499 13.9072 24.1077 14.2895 24.7843C14.7508 24.3183 15.4032 24.0002 16.2467 23.83C17.1934 24.1632 18.2296 24.3223 19.3553 24.3071C20.5607 24.2033 21.7504 24.0443 22.9243 23.83Z" fill="#EFBE41"/>
<path fill-rule="evenodd" clip-rule="evenodd" d="M27.7599 23.5914H28.6809C28.9232 26.5998 27.6184 28.0313 24.7664 27.8858C24.7867 26.8091 25.1321 25.8548 25.8026 25.0228C26.4327 24.4856 27.0851 24.0084 27.7599 23.5914Z" fill="#56B1EE"/>
<path fill-rule="evenodd" clip-rule="evenodd" d="M19.7007 24.5457C18.3191 24.7048 16.9375 24.8638 15.5559 25.0228C15.4309 25.0085 15.3541 24.929 15.3257 24.7843C16.776 24.5466 18.2343 24.467 19.7007 24.5457Z" fill="#464321"/>
<path fill-rule="evenodd" clip-rule="evenodd" d="M35.3585 15.4797C35.6524 15.9718 35.8444 16.5284 35.9342 17.1497C36.1675 19.8332 35.899 22.4575 35.1283 25.0228C34.9413 25.6061 34.711 26.1628 34.4375 26.6929C32.6421 29.6923 30.1861 31.9192 27.0691 33.3731C24.4758 33.9194 21.8662 33.9989 19.2401 33.6117C18.182 33.4847 17.1842 33.1667 16.2467 32.6574C15.2801 32.1962 14.4358 31.5601 13.7138 30.7487C15.2935 31.4139 16.9053 32.0103 18.5493 32.5381C20.0844 32.6972 21.6195 32.6972 23.1546 32.5381C27.6676 31.5155 31.0448 28.931 33.2862 24.7843C33.6836 24.2016 34.029 23.5654 34.3224 22.8756C35.2275 20.5011 35.5729 18.0358 35.3585 15.4797Z" fill="#D9742C"/>
<path fill-rule="evenodd" clip-rule="evenodd" d="M34.4375 26.6929C34.6196 27.417 34.8499 28.1327 35.1283 28.8401C34.8243 29.4697 34.5174 30.106 34.2072 30.7487C33.2586 31.4516 32.3375 32.2069 31.4441 33.0152C30.934 33.2643 30.3968 33.4232 29.8322 33.4924L30.0625 33.731C29.5435 33.9824 29.4668 34.3403 29.8322 34.8046C29.6478 36.6221 29.5327 38.451 29.4868 40.2919C29.4403 39.8729 29.3252 39.4755 29.1414 39.099C29.1267 39.3054 29.05 39.5439 28.9112 39.8147C28.7193 39.8942 28.5274 39.9739 28.3355 40.0533C27.8916 39.95 27.4694 39.7909 27.0691 39.5762C23.8882 39.7272 20.7413 39.8863 17.6283 40.0533C17.5628 40.5102 17.6395 40.9077 17.8586 41.2462C20.1965 41.4833 22.5758 41.563 24.9967 41.4848C25.8743 41.758 26.7953 41.7978 27.7599 41.6041C28.1206 40.896 28.3509 41.0153 28.4507 41.9619C28.3739 42.1211 28.2971 42.28 28.2204 42.4391C27.0174 43.4714 25.7893 43.5509 24.5362 42.6777C24.2371 42.8184 24.0452 43.057 23.9605 43.3934C23.8838 43.2343 23.807 43.0754 23.7303 42.9163C23.5716 43.1207 23.3797 43.2796 23.1546 43.3934C22.9774 42.9706 22.6703 42.7321 22.2336 42.6777C21.6514 42.9749 21.0374 43.2135 20.3914 43.3934C20.6015 44.2771 20.3712 44.3568 19.7007 43.632C18.7796 43.4729 17.8586 43.314 16.9375 43.1548C16.7503 42.8413 16.5201 42.5629 16.2467 42.3198C16.421 41.9591 16.6512 41.6408 16.9375 41.3655C16.429 41.1422 16.122 40.7447 16.0164 40.1726C16.17 40.0932 16.3235 40.0135 16.477 39.934C16.0193 39.6193 15.7507 39.182 15.6711 38.6218C15.5943 38.8604 15.5175 39.099 15.4408 39.3376C15.4704 37.8069 15.2785 36.3754 14.8651 35.0432C13.969 34.6705 13.2015 34.1139 12.5625 33.3731C13.1789 33.6389 13.793 33.6389 14.4046 33.3731C14.7162 33.1288 14.8697 32.8108 14.8651 32.4188C15.3257 32.4982 15.7862 32.5779 16.2467 32.6574C17.1842 33.1667 18.182 33.4848 19.2401 33.6117C21.728 34.1976 24.2609 34.2372 26.8388 33.731C26.9668 33.6396 27.0436 33.5203 27.0691 33.3731C30.1862 31.9192 32.6421 29.6923 34.4375 26.6929Z" fill="#071322"/>
<path fill-rule="evenodd" clip-rule="evenodd" d="M27.0691 33.3731C27.0436 33.5203 26.9669 33.6396 26.8388 33.731C24.2609 34.2372 21.728 34.1976 19.2401 33.6117C21.8662 33.9989 24.4759 33.9194 27.0691 33.3731Z" fill="#3E291C"/>
<path opacity="0.137" fill-rule="evenodd" clip-rule="evenodd" d="M5.88489 38.6218C6.19191 38.781 6.19191 38.9399 5.88489 39.099C5.88489 38.9399 5.88489 38.781 5.88489 38.6218Z" fill="#173E56"/>
<path fill-rule="evenodd" clip-rule="evenodd" d="M33.7467 7.36802C38.617 12.8231 39.8834 19.1057 37.546 26.2157C35.9777 30.0991 33.4448 33.1212 29.9474 35.2817C29.846 36.6748 29.8845 38.0667 30.0625 39.4568C30.1295 42.5686 28.6711 44.0795 25.6875 43.9898C25.2574 45.3583 24.6433 46.6307 23.8454 47.8071C22.394 48.519 21.281 48.1612 20.5066 46.7335C20.1779 45.8057 19.8325 44.8912 19.4704 43.9898C18.7029 43.9104 17.9353 43.8307 17.1678 43.7513C15.8191 43.3891 15.09 42.4744 14.9803 41.0076C14.8652 39.021 14.8268 37.0329 14.8651 35.0431C15.2785 36.3754 15.4704 37.8068 15.4408 39.3376C15.5175 39.099 15.5943 38.8604 15.671 38.6218C15.7507 39.182 16.0193 39.6193 16.477 39.934C16.3235 40.0135 16.17 40.0931 16.0164 40.1726C16.1219 40.7447 16.429 41.1422 16.9375 41.3655C16.6512 41.6408 16.4209 41.9591 16.2467 42.3198C16.5201 42.5629 16.7503 42.8413 16.9375 43.1548C17.8585 43.3139 18.7796 43.4728 19.7007 43.632C20.3712 44.3568 20.6015 44.2771 20.3914 43.3934C21.0374 43.2135 21.6514 42.9749 22.2335 42.6777C22.6703 42.7321 22.9774 42.9706 23.1546 43.3934C23.3797 43.2796 23.5716 43.1207 23.7303 42.9162C23.807 43.0754 23.8838 43.2343 23.9605 43.3934C24.0452 43.057 24.2371 42.8184 24.5362 42.6777C25.7893 43.5509 27.0174 43.4714 28.2204 42.4391C28.2971 42.2799 28.3739 42.1211 28.4507 41.9619C28.3509 41.0152 28.1206 40.896 27.7599 41.6041C26.7953 41.7978 25.8743 41.7579 24.9967 41.4848C25.6917 41.5241 26.3825 41.4843 27.0691 41.3655C27.2777 40.9601 27.3545 40.5226 27.2993 40.0533C26.5318 40.0533 25.7642 40.0533 24.9967 40.0533C22.5406 40.0533 20.0844 40.0533 17.6283 40.0533C20.7413 39.8863 23.8882 39.7272 27.0691 39.5761C27.4694 39.7909 27.8916 39.95 28.3355 40.0533C28.5274 39.9738 28.7193 39.8942 28.9112 39.8147C29.05 39.5439 29.1267 39.3054 29.1414 39.099C29.3252 39.4755 29.4403 39.8729 29.4868 40.2919C29.5327 38.451 29.6478 36.6221 29.8322 34.8046C29.4668 34.3403 29.5435 33.9824 30.0625 33.731C29.9858 33.6515 29.9089 33.5718 29.8322 33.4924C30.3968 33.4232 30.934 33.2643 31.4441 33.0152C32.3375 32.2069 33.2585 31.4516 34.2072 30.7487C34.5174 30.106 34.8243 29.4697 35.1283 28.8401C34.8499 28.1327 34.6196 27.417 34.4375 26.6929C34.711 26.1628 34.9413 25.6061 35.1283 25.0228C35.5135 24.8217 35.7822 24.5036 35.9342 24.0685C37.8951 17.7516 36.5518 12.304 31.9046 7.72589C31.9813 7.64637 32.0582 7.56683 32.1349 7.48731C31.7782 7.19767 31.5097 6.83981 31.3289 6.4137C30.7577 6.25896 30.681 6.02038 31.0987 5.69797C31.8024 6.37715 32.4549 7.09289 33.0559 7.84518C33.2321 7.5799 33.4623 7.42084 33.7467 7.36802Z" fill="#081B2F"/>
<path fill-rule="evenodd" clip-rule="evenodd" d="M24.9967 40.0533H27.2993C27.3545 40.5226 27.2777 40.9601 27.0691 41.3655C26.3825 41.4843 25.6917 41.5241 24.9967 41.4848C22.5758 41.563 20.1965 41.4833 17.8586 41.2462H24.9967C24.9967 40.8485 24.9967 40.451 24.9967 40.0533Z" fill="#768A92"/>
<path fill-rule="evenodd" clip-rule="evenodd" d="M17.6283 40.0533H24.9967V41.2462C22.6173 41.2462 20.2379 41.2462 17.8585 41.2462C17.6395 40.9076 17.5628 40.5102 17.6283 40.0533Z" fill="#E2E5E4"/>
<path fill-rule="evenodd" clip-rule="evenodd" d="M17.6283 36.236V37.9061H24.9967C24.9967 37.5084 24.9967 37.1109 24.9967 36.7132C23.2297 36.7528 21.4643 36.7132 19.7007 36.5939C19.1168 36.5495 18.5795 36.4302 18.0888 36.236C21.2366 36.5424 24.3836 36.5424 27.5296 36.236V38.1447C24.1524 38.1447 20.7752 38.1447 17.398 38.1447C17.3275 37.4564 17.4042 36.8201 17.6283 36.236Z" fill="#45637B"/>
<path fill-rule="evenodd" clip-rule="evenodd" d="M17.6283 36.236H18.0888C18.5795 36.4302 19.1168 36.5495 19.7007 36.5939C21.4643 36.7132 23.2297 36.7528 24.9967 36.7132V37.9061C22.5406 37.9061 20.0844 37.9061 17.6283 37.9061C17.6283 37.3495 17.6283 36.7926 17.6283 36.236Z" fill="#EBEFEF"/>
</g>
<defs>
<clipPath id="clip0_4_300">
<rect width="35" height="47" fill="white" transform="translate(6 2)"/>
</clipPath>
</defs>
</svg>
